<svg id="eWXuCPK5Gzr1" xmlns="http://www.w3.org/2000/svg" xmlns:xlink="http://www.w3.org/1999/xlink" viewBox="0 0 463 138" shape-rendering="geometricPrecision" text-rendering="geometricPrecision">
<style><![CDATA[
#eWXuCPK5Gzr5_to {animation: eWXuCPK5Gzr5_to__to 3000ms linear infinite normal forwards}@keyframes eWXuCPK5Gzr5_to__to { 0% {offset-distance: 0%} 25.333333% {offset-distance: 25.239916%} 50% {offset-distance: 50.000024%} 75.333333% {offset-distance: 75.239917%} 100% {offset-distance: 100%}} #eWXuCPK5Gzr6_to {animation: eWXuCPK5Gzr6_to__to 3000ms linear infinite normal forwards}@keyframes eWXuCPK5Gzr6_to__to { 0% {offset-distance: 0%} 25% {offset-distance: 25%} 50% {offset-distance: 50%} 75% {offset-distance: 75%} 100% {offset-distance: 100%}} #eWXuCPK5Gzr7_to {animation: eWXuCPK5Gzr7_to__to 3000ms linear infinite normal forwards}@keyframes eWXuCPK5Gzr7_to__to { 0% {offset-distance: 0%} 24.666667% {offset-distance: 24.760108%} 50% {offset-distance: 50.00004%} 74.666667% {offset-distance: 74.760122%} 100% {offset-distance: 100%}}
]]></style>
<defs>
<linearGradient id="eWXuCPK5Gzr2-stroke" x1="122.294" y1="44.0713" x2="134.864" y2="94.0425" spreadMethod="pad" gradientUnits="userSpaceOnUse" gradientTransform="translate(0 0)">
<stop id="eWXuCPK5Gzr2-stroke-0" offset="0%" stop-color="rgba(9,211,172,0.7)"/>
<stop id="eWXuCPK5Gzr2-stroke-1" offset="100%" stop-color="rgba(97,218,251,0.1)"/>
</linearGradient>
<linearGradient id="eWXuCPK5Gzr3-stroke" x1="155.935" y1="56.5369" x2="113.784" y2="79.7704" spreadMethod="pad" gradientUnits="userSpaceOnUse" gradientTransform="translate(0 0)">
<stop id="eWXuCPK5Gzr3-stroke-0" offset="0%" stop-color="rgba(9,211,172,0.7)"/>
<stop id="eWXuCPK5Gzr3-stroke-1" offset="100%" stop-color="rgba(97,218,251,0.1)"/>
</linearGradient>
<linearGradient id="eWXuCPK5Gzr4-stroke" x1="155.935" y1="81.4631" x2="92.3494" y2="50.5268" spreadMethod="pad" gradientUnits="userSpaceOnUse" gradientTransform="translate(0 0)">
<stop id="eWXuCPK5Gzr4-stroke-0" offset="0%" stop-color="rgba(9,211,172,0.7)"/>
<stop id="eWXuCPK5Gzr4-stroke-1" offset="100%" stop-color="rgba(97,218,251,0.1)"/>
</linearGradient>
<linearGradient id="eWXuCPK5Gzr5-fill" x1="156.5" y1="73" x2="156.5" y2="89" spreadMethod="pad" gradientUnits="userSpaceOnUse" gradientTransform="translate(0 0)">
<stop id="eWXuCPK5Gzr5-fill-0" offset="0%" stop-color="#09d3ac"/><stop id="eWXuCPK5Gzr5-fill-1" offset="100%" stop-color="rgba(97,218,251,0.79)"/>
</linearGradient>
<linearGradient id="eWXuCPK5Gzr6-fill" x1="88.5" y1="45" x2="88.5" y2="61" spreadMethod="pad" gradientUnits="userSpaceOnUse" gradientTransform="translate(0 0)">
<stop id="eWXuCPK5Gzr6-fill-0" offset="0%" stop-color="#09d3ac"/>
<stop id="eWXuCPK5Gzr6-fill-1" offset="100%" stop-color="rgba(97,218,251,0.79)"/>
</linearGradient>
<linearGradient id="eWXuCPK5Gzr7-fill" x1="124.5" y1="10" x2="124.5" y2="26" spreadMethod="pad" gradientUnits="userSpaceOnUse" gradientTransform="translate(0 0)">
<stop id="eWXuCPK5Gzr7-fill-0" offset="0%" stop-color="#09d3ac"/>
<stop id="eWXuCPK5Gzr7-fill-1" offset="100%" stop-color="rgba(97,218,251,0.79)"/>
</linearGradient>
<linearGradient id="eWXuCPK5Gzr8-fill" x1="135.326" y1="56.8336" x2="135.326" y2="81.1664" spreadMethod="pad" gradientUnits="userSpaceOnUse" gradientTransform="translate(0 0)">
<stop id="eWXuCPK5Gzr8-fill-0" offset="0%" stop-color="#09d3ac"/>
<stop id="eWXuCPK5Gzr8-fill-1" offset="100%" stop-color="rgba(97,218,251,0.4)"/>
</linearGradient>
<linearGradient id="eWXuCPK5Gzr9-fill" x1="232" y1="-5.62963" x2="232" y2="131" spreadMethod="pad" gradientUnits="userSpaceOnUse" gradientTransform="translate(0 0)"><stop id="eWXuCPK5Gzr9-fill-0" offset="38.5417%" stop-color="#09d3ac"/><stop id="eWXuCPK5Gzr9-fill-1" offset="100%" stop-color="rgba(75,75,82,0.15)"/></linearGradient></defs><path d="M135.326,93.9263c34.422,0,62.326-11.1599,62.326-24.9263s-27.904-24.9263-62.326-24.9263-62.326,11.1599-62.326,24.9263s27.904,24.9263,62.326,24.9263Z" fill="none" stroke="url(#eWXuCPK5Gzr2-stroke)" stroke-width="4"/><path d="M114.717,81.4631c17.211,31.2249,40.39,50.9569,51.772,44.0739s6.657-37.7757-10.554-69.0001-40.39-50.95696-51.772-44.0738-6.6568,37.7756,10.554,69Z" fill="none" stroke="url(#eWXuCPK5Gzr3-stroke)" stroke-width="4"/><path d="M114.717,56.5369C97.5062,87.7613,92.781,118.654,104.163,125.537s34.561-12.849,51.772-44.0739c17.211-31.2244,21.936-62.1168,10.554-69s-34.561,12.8493-51.772,44.0738Z" fill="none" stroke="url(#eWXuCPK5Gzr4-stroke)" stroke-width="4"/><g id="eWXuCPK5Gzr5_to" style="offset-path:path('M114.717,56.5369C97.5062,87.7613,92.781,118.654,104.163,125.537C115.545,132.42,138.724,112.688,155.935,81.4631C173.146,50.2387,177.871,19.3463,166.489,12.4631C155.107,5.57994,131.928,25.3124,114.717,56.5369');offset-rotate:0deg"><path d="M156.5,89c4.142,0,7.5-3.5817,7.5-8s-3.358-8-7.5-8-7.5,3.5817-7.5,8s3.358,8,7.5,8Z" transform="translate(-156.5,-81)" fill="url(#eWXuCPK5Gzr5-fill)"/></g><g id="eWXuCPK5Gzr6_to" style="offset-path:path('M135.326,93.9263C169.748,93.9263,197.652,82.7664,197.652,69C197.652,55.2336,169.748,44.0737,135.326,44.0737C100.904,44.0737,73,55.2336,73,69C73,82.7664,100.904,93.9263,135.326,93.9263');offset-rotate:0deg"><path d="M88.5,61c4.1421,0,7.5-3.5817,7.5-8s-3.3579-8-7.5-8-7.5,3.5817-7.5,8s3.3579,8,7.5,8Z" transform="translate(-88.5,-53)" fill="url(#eWXuCPK5Gzr6-fill)"/></g><g id="eWXuCPK5Gzr7_to" style="offset-path:path('M114.717,81.4631C131.928,112.688,155.107,132.42,166.489,125.537C177.871,118.654,173.146,87.7613,155.935,56.5369C138.724,25.3124,115.545,5.57994,104.163,12.4631C92.781,19.3463,97.5062,50.2387,114.717,81.4631');offset-rotate:0deg"><path d="M124.5,26c4.142,0,7.5-3.5817,7.5-8s-3.358-8-7.5-8-7.5,3.5817-7.5,8s3.358,8,7.5,8Z" transform="translate(-124.5,-18)" fill="url(#eWXuCPK5Gzr7-fill)"/></g><path d="M135.326,81.1664c6.415,0,11.615-5.4471,11.615-12.1664s-5.2-12.1664-11.615-12.1664-11.615,5.4471-11.615,12.1664s5.2,12.1664,11.615,12.1664Z" fill="url(#eWXuCPK5Gzr8-fill)"/><path d="M0.4,123L38.2,39h15.36l37.92,84h-16.32L42.64,47.28h6.24L16.48,123h-16.08Zm17.4-19.44L22,91.32h45.36l4.2,12.24h-53.76ZM102.163,123v-84h34.56c7.44,0,13.8,1.2,19.08,3.6c5.36,2.4,9.48,5.84,12.36,10.32s4.32,9.8,4.32,15.96-1.44,11.48-4.32,15.96c-2.88,4.4-7,7.8-12.36,10.2-5.28,2.32-11.64,3.48-19.08,3.48h-25.92l6.96-7.08v31.56h-15.6Zm54.96,0l-21.24-30.48h16.68L173.923,123h-16.8Zm-39.36-29.88l-6.96-7.44h25.2c6.88,0,12.04-1.48,15.48-4.44c3.52-2.96,5.28-7.08,5.28-12.36c0-5.36-1.76-9.48-5.28-12.36-3.44-2.88-8.6-4.32-15.48-4.32h-25.2l6.96-7.68v48.6ZM228.816,124.2c-6.4,0-12.36-1.04-17.88-3.12-5.44-2.16-10.2-5.16-14.28-9-4-3.92-7.12-8.52-9.36-13.8s-3.36-11.04-3.36-17.28s1.12-12,3.36-17.28s5.4-9.84,9.48-13.68c4.08-3.92,8.84-6.92,14.28-9c5.44-2.16,11.4-3.24,17.88-3.24c6.88,0,13.16,1.2,18.84,3.6c5.68,2.32,10.48,5.8,14.4,10.44l-10.08,9.48c-3.04-3.28-6.44-5.72-10.2-7.32-3.76-1.68-7.84-2.52-12.24-2.52s-8.44.72-12.12,2.16c-3.6,1.44-6.76,3.48-9.48,6.12-2.64,2.64-4.72,5.76-6.24,9.36-1.44,3.6-2.16,7.56-2.16,11.88s.72,8.28,2.16,11.88c1.52,3.6,3.6,6.72,6.24,9.36c2.72,2.64,5.88,4.68,9.48,6.12c3.68,1.44,7.72,2.16,12.12,2.16s8.48-.8,12.24-2.4c3.76-1.68,7.16-4.2,10.2-7.56l10.08,9.6c-3.92,4.56-8.72,8.04-14.4,10.44s-12,3.6-18.96,3.6Zm48.308-1.2v-84h15.6v70.8h43.92v13.2h-59.52Zm71.836,0v-84h15.6v84h-15.6Zm28.12,0l35.4-48.72v11.76L378.76,39h17.64l25.08,34.8-7.2.12L439.12,39h16.92L422.56,85.2v-11.28L458.2,123h-18L413.8,86.04h7.08L394.84,123h-17.76Z" fill="url(#eWXuCPK5Gzr9-fill)"/></svg>
